<?xml version="1.0" encoding="iso-8859-1"?>
<!-- Generator: Adobe Illustrator 19.0.0, SVG Export Plug-In . SVG Version: 6.00 Build 0)  -->
<svg version="1.1" id="Layer_1" xmlns="http://www.w3.org/2000/svg" xmlns:xlink="http://www.w3.org/1999/xlink" x="0px" y="0px"
	 viewBox="0 0 485.943 485.943" style="enable-background:new 0 0 485.943 485.943;" xml:space="preserve">
<g>
	<path style="fill:#DDB200;" d="M475.356,119.703c-8.516-9.998-21.277-15.731-35.011-15.731H195.348
		c2.719,5.187,4.624,10.834,5.496,16.777l7.801,53.222h140.258c25.946,0,50.406,19.899,55.686,45.303l40.05,192.698l40.683-255.202
		C487.505,143.211,483.872,129.7,475.356,119.703z"/>
	<path style="fill:#FFCD00;" d="M348.902,173.971H208.645l34.885,238.001h201.109l-40.05-192.698
		C399.309,193.87,374.849,173.971,348.902,173.971z"/>
	<path style="fill:#FFDA44;" d="M200.844,120.749c-0.872-5.944-2.777-11.59-5.496-16.777c-9.281-17.705-28.145-30-48.649-30H45.949
		c-13.68,0-26.452,5.702-35.042,15.645c-8.589,9.941-12.376,23.407-10.389,36.943L42.42,411.971h201.109l-34.885-238.001
		L200.844,120.749z"/>
</g>
<g>
</g>
<g>
</g>
<g>
</g>
<g>
</g>
<g>
</g>
<g>
</g>
<g>
</g>
<g>
</g>
<g>
</g>
<g>
</g>
<g>
</g>
<g>
</g>
<g>
</g>
<g>
</g>
<g>
</g>
</svg>
